<?xml version="1.0" encoding="UTF-8"?>
<svg viewBox="0 0 640 480" xmlns="http://www.w3.org/2000/svg">
 <path d="m495.19 116.05c-46.419 0.35579-91.151 16.987-136.71 23.638-19.016 2.776-38.615 3.456-57.663 0.87523-25.326-3.432-49.846-12.548-75.156-16.634-22.618-3.6497-45.52-7.463-68.28-7.6147-39.776-0.27023-78.245 14.004-117.24 21.712 0 13.073-2.3178 29.855 3.5122 39.045 6.0138 9.4778 16.158 18.146 18.789 30.99 6.2393 30.462 15.098 60.321 26.426 88.947 5.5043 13.911 15.893 23.61 27.495 30.29 27.938 16.088 61.004 18.454 91.652 13.395 43.646-7.2048 67.325-44.742 85.39-87.633 6.7614-17.435 7.5159-37.557 16.421-53.492 5.2885-9.4628 17.571-5.4798 26.348-5.5143 8.7785-0.0345 16.219 16.701 18.942 27.84 9.6416 39.421 25.716 81.246 57.664 101.9 47.708 30.846 122.87 25.076 153.82-30.553 12.114-21.772 15.459-48.188 21.537-72.836 3.7001-15.007 7.0063-32.898 20.164-41.148 5.3094-3.3299 1.5829-16.615 2.3666-24.338 0.8548-8.4134 2.5016-15.857-7.9432-17.508-18.217-2.884-35.888-11.652-54.532-14.62-17.668-2.8134-34.979-6.879-53.006-6.7424zm-306.88 14.007c13.177-0.094589 26.298 1.0104 39.105 4.1151 76.308 18.501 77.851 54.538 46.437 129.04-25.598 60.708-78.623 75.92-132.05 61.368-24.632-6.7064-41.473-26.414-49.416-53.402-8.3845-28.484-14.725-58.746-13.29-88.686 1.9238-40.088 41.483-45.722 69.809-49.375 12.998-1.6755 26.234-2.9681 39.41-3.0642zm278.62 0c13.178 0.096085 26.413 1.3887 39.411 3.0642 28.325 3.6526 67.886 9.2871 69.807 49.375 1.4352 29.939-4.9057 60.201-13.29 88.686-7.9433 26.988-24.785 46.695-49.415 53.402-53.429 14.552-106.46-0.65912-132.06-61.368-31.414-74.506-29.87-110.54 46.438-129.04 12.807-3.1047 25.928-4.2097 39.104-4.1151v-3.1e-5z" stroke="#000" stroke-width="5"/>
</svg>
