<?xml version='1.0' encoding='utf-8'?>
<svg xmlns="http://www.w3.org/2000/svg" viewBox="0 0 150.17999 49.900002" id="svg2" height="49.900002mm" width="150.17999mm" version="1.0"> <metadata id="metadata14"> </metadata> <defs id="defs4"> <clipPath id="clipEmfPath1" clipPathUnits="userSpaceOnUse"> <path id="path7" d="m -0.449699,-0.449699 532.443699,0 0,176.881699 -532.443699,0 z"/> </clipPath> <pattern y="0" x="0" height="6" width="6" patternUnits="userSpaceOnUse" id="EMFhbasepattern"/> </defs> <path transform="scale(0.28222222,0.28222222)" id="path10" d="m 505.911,21.5106 c -7.794,-0.712 -14.315,0.6371 -14.502,2.998 -0.225,2.3609 5.958,4.8343 13.753,5.5088 7.832,0.712 14.315,-0.6371 14.54,-2.998 0.187,-2.3234 -5.958,-4.7968 -13.791,-5.5088 z m -480.4281,0 c -7.7947,0.712 -13.9406,3.1854 -13.7533,5.5088 0.2249,2.3609 6.7081,3.71 14.5403,2.998 7.7948,-0.6745 13.9782,-3.1479 13.7533,-5.5088 -0.2248,-2.3609 -6.708,-3.71 -14.5403,-2.998 z M 398.508,16.1517 c -36.538,1.3116 -58.348,6.2208 -73.076,16.0393 -14.69,9.8184 -16.864,25.1831 -15.14,42.7963 1.687,17.6132 9.631,47.8557 25.408,62.8457 15.74,15.027 31.329,26.682 69.067,27.207 34.776,0.449 59.735,-13.379 73.076,-33.878 10.268,-18.887 17.388,-47.5555 14.727,-79.3717 -2.848,-10.9801 -14.577,-24.6585 -30.767,-30.3172 -15.664,-5.921 -40.51,-6.1833 -63.295,-5.3214 z m -265.622,0 C 110.101,15.2898 85.2929,15.5521 69.6284,21.4731 53.4392,27.1318 41.6721,40.8102 38.8615,51.7903 c -2.6607,31.8162 4.4595,60.4847 14.7276,79.3717 13.3411,20.499 38.2994,34.327 73.0759,33.878 37.737,-0.525 53.327,-12.18 69.066,-27.207 15.777,-14.99 23.722,-45.2325 25.408,-62.8457 C 222.863,57.3741 220.69,42.0094 206,32.191 191.272,22.3725 169.462,17.4633 132.886,16.1517 Z M 109.727,0.0749498 C 160.692,2.62324 190.26,6.48316 250.557,26.3823 l 30.317,0 C 341.172,6.48316 370.739,2.62324 421.705,0.0749498 460.642,0.224849 495.081,4.38456 531.319,11.6922 c -0.112,10.2306 -2.061,19.5994 -2.211,29.8675 -4.309,2.8106 -13.078,5.209 -16.489,14.2404 -3.56,26.1575 -3.447,44.8949 -13.378,70.4529 -6.821,17.613 -31.329,50.966 -92.263,49.467 -42.609,0.15 -64.457,-12.929 -85.556,-32.528 -21.098,-19.637 -29.717,-56.0254 -40.997,-85.1434 -1.949,-1.7988 -4.535,-2.2485 -7.308,-2.3609 l -14.802,0 c -2.774,0.1124 -5.359,0.5621 -7.308,2.3609 -11.28,29.118 -19.899,65.5064 -40.998,85.1434 -21.098,19.599 -42.946,32.678 -85.555,32.528 C 63.52,177.219 39.0114,143.866 32.191,126.253 22.2601,100.695 22.3725,81.9576 18.8124,55.8001 15.4022,46.7687 6.63306,44.3703 2.32344,41.5597 2.17355,31.2916 0.224849,21.9228 0.0749498,11.6922 36.3507,4.38456 70.7901,0.224849 109.727,0.0749498 Z" clip-path="url(#clipEmfPath1)" style="fill:#000000;fill-opacity:1;fill-rule:evenodd;stroke:none"/> </svg>