<?xml version="1.0" encoding="UTF-8"?>
<svg viewBox="0 0 640 480" xmlns="http://www.w3.org/2000/svg">
 <path d="m472.61 22.656c-47.664 0.30088-93.596 14.374-140.38 20.001-19.526 2.3487-39.651 2.9249-59.21 0.7408-26.005-2.9038-51.182-10.618-77.17-14.075-23.224-3.0895-46.741-6.3149-70.112-6.4448-40.841-0.22706-80.343 11.851-120.38 18.372 0 11.064-2.3787 25.264 3.6075 33.039 6.1744 8.02 16.59 15.355 19.292 26.224 6.4075 25.775 15.504 51.042 27.135 75.264 5.6522 11.771 16.321 19.978 28.233 25.631 28.686 13.613 62.638 15.615 94.11 11.334 44.816-6.0964 69.129-37.86 87.679-74.153 6.9434-14.753 7.7178-31.779 16.861-45.262 5.4309-8.0084 18.043-4.6376 27.056-4.6669 9.0136-0.029366 16.652 14.131 19.449 23.557 9.8997 33.358 26.406 68.749 59.211 86.228 48.988 26.101 126.16 21.219 157.95-25.853 12.439-18.422 15.875-40.776 22.116-61.634 3.7994-12.698 7.1928-27.836 20.704-34.817 5.4528-2.8174 1.6263-14.06 2.4311-20.594 0.87689-7.1205 2.5678-13.417-8.1562-14.816-18.706-2.4397-36.851-9.8599-55.995-12.371-18.142-2.3798-35.918-5.8209-54.427-5.7041zm-315.11 11.853c13.53-0.081326 27.002 0.85413 40.153 3.4817 78.354 15.655 79.939 46.148 47.682 109.19-26.284 51.371-80.732 64.242-135.6 51.929-25.291-5.6759-42.584-22.352-50.741-45.188-8.6082-24.102-15.12-49.71-13.646-75.042 1.974-33.923 42.595-38.69 71.68-41.78 13.346-1.418 26.937-2.5115 40.467-2.5928zm286.09 0c13.53 0.081306 27.121 1.1748 40.467 2.5928 29.085 3.09 69.706 7.8575 71.68 41.78 1.4741 25.332-5.0375 50.94-13.646 75.042-8.1563 22.836-25.45 39.512-50.741 45.188-54.864 12.313-109.31-0.55818-135.6-51.929-32.257-63.044-30.672-93.537 47.682-109.19 13.151-2.6276 26.624-3.5629 40.153-3.4817z" stroke="#000"/>
</svg>
